<?xml version="1.0" encoding="UTF-8" standalone="no" ?>
<!DOCTYPE svg PUBLIC "-//W3C//DTD SVG 1.1//EN" "http://www.w3.org/Graphics/SVG/1.1/DTD/svg11.dtd">
<svg xmlns="http://www.w3.org/2000/svg" xmlns:xlink="http://www.w3.org/1999/xlink" version="1.1" width="500" height="500" viewBox="0 0 500 500" xml:space="preserve">
<desc>Created with Fabric.js 3.6.3</desc>
<defs>
</defs>
<g transform="matrix(1 0 0 1 249.4863552248089 341.66438578920935)" style=""  ><path fill="#737373" opacity="1" d="M-108.82-11.56C-108.82-13.47-106.90-15.39-101.15-15.39C-96.36-15.39-94.38-13.47-93.81-12.52C-92.91-10.92-91.89-9.96-89.97-9.96L-81.98-9.96C-80.39-9.96-79.43-10.92-79.43-12.52C-79.43-18.91-86.46-25.93-101.15-25.93C-116.81-25.93-123.52-19.22-123.52-11.56C-123.52 6.34-92.53 0.26-92.53 6.65C-92.53 8.57-94.76 10.81-101.15 10.81C-107.54 10.81-109.46 8.89-110.42 7.29C-111.31 5.76-112.34 4.74-114.25 4.74L-122.24 4.74C-123.84 4.74-124.80 5.70-124.80 7.29C-124.80 14.32-117.77 21.35-101.15 21.35C-84.86 21.35-77.83 14.32-77.83 6.65C-77.83-11.24-108.82-5.17-108.82-11.56Z"/><path fill="#737373" opacity="1" d="M-73.36 16.88C-73.36 18.48-71.76 20.07-70.16 20.07L-63.77 20.07C-62.17 20.07-60.58 18.48-60.58 16.88L-60.58 12.41C-60.58 10.81-62.17 9.21-63.77 9.21L-70.16 9.21C-71.76 9.21-73.36 10.81-73.36 12.41Z"/><path fill="#737373" opacity="1" d="M-18.53 17.84C-18.02 19.12-16.93 20.07-15.66 20.07L-4.79 20.07C-3.51 20.07-2.62 19.12-3.19 17.84L-21.09-22.48C-21.66-23.76-22.68-24.66-23.96-24.66L-37.06-24.66C-38.34-24.66-39.36-23.70-39.94-22.42L-57.83 17.84C-58.40 19.12-57.51 20.07-56.23 20.07L-46.01 20.07C-44.73 20.07-43.64 19.12-43.13 17.84L-40.90 12.09L-20.77 12.09ZM-30.99-11.24L-30.35-11.24L-25.24 1.54L-36.42 1.54Z"/><path fill="#737373" opacity="1" d="M-0.45 16.88C-0.45 18.48 1.15 20.07 2.75 20.07L9.14 20.07C10.74 20.07 12.33 18.48 12.33 16.88L12.33 12.41C12.33 10.81 10.74 9.21 9.14 9.21L2.75 9.21C1.15 9.21-0.45 10.81-0.45 12.41Z"/><path fill="#737373" opacity="1" d="M61.86-22.42C61.86-23.70 60.90-24.66 59.62-24.66L21.92-24.66C20.64-24.66 19.68-23.70 19.68-22.42L19.68 17.84C19.68 19.12 20.64 20.07 21.92 20.07L31.50 20.07C32.78 20.07 33.74 19.12 33.74 17.84L33.74 5.38L53.87 5.38C55.15 5.38 56.10 4.42 56.10 3.14L56.10-3.25C56.10-4.53 55.15-5.49 53.87-5.49L33.74-5.49L33.74-13.79L59.62-13.79C60.90-13.79 61.86-14.75 61.86-16.03Z"/><path fill="#737373" opacity="1" d="M60.90 16.88C60.90 18.48 62.49 20.07 64.09 20.07L70.48 20.07C72.08 20.07 73.68 18.48 73.68 16.88L73.68 12.41C73.68 10.81 72.08 9.21 70.48 9.21L64.09 9.21C62.49 9.21 60.90 10.81 60.90 12.41Z"/><path fill="#737373" opacity="1" d="M124.48-22.42C124.48-23.70 123.52-24.66 122.24-24.66L83.26-24.66C81.98-24.66 81.03-23.70 81.03-22.42L81.03 17.84C81.03 19.12 81.98 20.07 83.26 20.07L122.24 20.07C123.52 20.07 124.48 19.12 124.48 17.84L124.48 11.45C124.48 10.17 123.52 9.21 122.24 9.21L95.08 9.21L95.08 2.82L115.21 2.82C116.49 2.82 117.45 1.86 117.45 0.58L117.45-5.81C117.45-7.08 116.49-8.04 115.21-8.04L95.08-8.04L95.08-13.79L122.24-13.79C123.52-13.79 124.48-14.75 124.48-16.03Z"/></g><g transform="matrix(2.8784194232526565 0 0 2.8784194232526574 261.1552621154556 207.82034751062045)"  >
<g style=""   >
		<g transform="matrix(1 0 0 1 0.5000759670212815 0.5007797884885576)"  >
<linearGradient id="SVGID_19155" gradientUnits="userSpaceOnUse" gradientTransform="matrix(1 0 0 1 0.9980518919159067 3.114934549460223)"  x1="0" y1="0" x2="66" y2="66">
<stop offset="0%" style="stop-color:rgb(45,56,138);stop-opacity: 1"/>
<stop offset="100%" style="stop-color:rgb(0,174,239);stop-opacity: 1"/>
</linearGradient>
<path style="stroke: none; stroke-width: 1; stroke-dasharray: none; stroke-linecap: butt; stroke-dashoffset: 0; stroke-linejoin: miter; stroke-miterlimit: 4; fill: url(#SVGID_19155); fill-rule: nonzero; opacity: 1;"  transform=" translate(-33.00007596702128, -33.00077978848856)" d="M 64.775 18.437 c -0.055 -0.271 -0.254 -0.49 -0.519 -0.57 c -0.267 -0.081 -0.553 -0.008 -0.747 0.188 l -6.476 6.476 L 49.804 17.3 l 6.472 -6.471 c 0.195 -0.195 0.268 -0.482 0.188 -0.747 c -0.08 -0.265 -0.299 -0.464 -0.57 -0.519 c -5.841 -1.174 -11.658 2.352 -13.197 8.264 c -0.464 -0.916 -1.004 -1.798 -1.615 -2.645 l 1.067 -1.286 c 0.904 -1.085 0.761 -2.706 -0.333 -3.617 l -3.783 -3.142 c -1.049 -0.871 -2.746 -0.712 -3.616 0.334 L 33.347 8.76 c -1.708 -0.808 -3.494 -1.362 -5.323 -1.651 L 27.87 5.442 c -0.132 -1.422 -1.398 -2.451 -2.789 -2.315 L 20.173 3.58 c -1.417 0.131 -2.461 1.376 -2.33 2.789 l 0.154 1.666 c -1.775 0.639 -3.424 1.512 -4.917 2.6 l -1.288 -1.071 c -1.09 -0.904 -2.711 -0.753 -3.616 0.334 L 5.02 13.683 c -0.904 1.088 -0.755 2.71 0.334 3.616 l 1.286 1.068 c -0.8 1.7 -1.354 3.485 -1.652 5.326 l -1.663 0.154 c -1.403 0.129 -2.446 1.383 -2.316 2.788 l 0.454 4.91 c 0.125 1.347 1.26 2.339 2.552 2.339 c 0.132 0 1.213 -0.1 1.907 -0.165 c 0.618 1.744 1.488 3.396 2.594 4.93 l -1.068 1.276 c -0.907 1.091 -0.753 2.713 0.335 3.616 l 3.796 3.154 c 1.093 0.906 2.715 0.751 3.616 -0.335 l 1.064 -1.28 c 0.844 0.403 1.719 0.75 2.62 1.027 l -6.151 6.151 c -1.704 1.703 -1.703 4.46 0 6.162 l 3.188 3.189 c 1.704 1.704 4.459 1.703 6.162 0 L 51.81 31.875 C 59.661 33.164 66.331 26.203 64.775 18.437 z M 4.114 32.38 c -0.577 0.051 -1.103 -0.382 -1.157 -0.973 c -0.423 -4.572 -0.905 -5.936 0.507 -6.066 l 1.324 -0.122 c -0.1 1.172 -0.098 2.361 0.014 3.546 c 0.104 1.182 0.322 2.354 0.641 3.493 L 4.114 32.38 z M 35.571 8.43 c 0.372 -0.448 1.05 -0.516 1.503 -0.139 l 3.783 3.142 c 0.453 0.376 0.516 1.053 0.139 1.504 l -0.849 1.023 c -1.534 -1.822 -3.354 -3.334 -5.427 -4.507 L 35.571 8.43 z M 20.31 5.074 l 4.909 -0.454 c 0.585 -0.053 1.102 0.376 1.156 0.961 l 0.123 1.324 c -1.164 -0.104 -2.352 -0.103 -3.546 0.01 c -1.211 0.114 -2.381 0.332 -3.493 0.64 l -0.122 -1.323 C 19.282 5.643 19.717 5.129 20.31 5.074 z M 6.313 16.145 c -0.453 -0.377 -0.515 -1.051 -0.14 -1.503 l 3.155 -3.785 c 0.377 -0.454 1.052 -0.514 1.504 -0.139 l 1.048 0.871 c -1.803 1.51 -3.341 3.354 -4.521 5.425 L 6.313 16.145 z M 14.04 45.402 c -0.377 0.452 -1.05 0.515 -1.503 0.139 l -3.796 -3.154 c -0.455 -0.377 -0.512 -1.055 -0.142 -1.501 l 0.853 -1.018 c 1.538 1.816 3.394 3.355 5.44 4.509 L 14.04 45.402 z M 16.393 43.482 c -2.451 -1.23 -4.644 -3.046 -6.34 -5.25 C 8.752 36.535 7.77 34.67 7.136 32.68 c -0.438 -1.31 -0.721 -2.672 -0.841 -4.053 c -0.132 -1.39 -0.106 -2.783 0.076 -4.141 c 0.272 -2.083 0.897 -4.098 1.854 -5.986 c 1.266 -2.482 3.087 -4.668 5.276 -6.326 c 1.642 -1.278 3.5 -2.262 5.528 -2.925 c 1.267 -0.423 2.634 -0.705 4.063 -0.84 c 1.399 -0.134 2.79 -0.105 4.145 0.087 c 2.069 0.261 4.081 0.885 5.979 1.853 c 0 0 0.001 0.001 0.001 0.001 c 2.496 1.266 4.622 3.033 6.324 5.253 c 0.002 0.002 0.005 0.003 0.007 0.006 c 1.216 1.588 2.15 3.327 2.781 5.169 c 0.005 0.58 0.038 1.161 0.134 1.743 l -1.407 1.407 c -0.624 -3.422 -2.291 -6.498 -4.716 -8.855 c -3.321 -3.235 -7.947 -5.055 -13.073 -4.624 C 13.924 11.36 7.496 19.596 8.334 28.44 c 0.691 7.257 5.998 13.36 13.481 14.729 l -1.718 1.718 C 18.809 44.555 17.565 44.089 16.393 43.482 z M 25.132 17.826 c -5.249 0 -9.519 4.27 -9.519 9.518 c 0 5.248 4.269 9.518 9.519 9.518 c 1.341 0 2.616 -0.282 3.774 -0.784 l -5.766 5.766 c -7.078 -0.759 -12.64 -6.401 -13.311 -13.546 c -0.755 -7.964 5.007 -15.525 13.576 -16.357 c 4.676 -0.393 8.86 1.261 11.89 4.204 c 2.465 2.4 4.065 5.605 4.443 9.1 l -5.872 5.873 c 0.502 -1.158 0.784 -2.433 0.784 -3.774 C 34.649 22.097 30.38 17.826 25.132 17.826 z M 33.149 27.345 c 0 4.421 -3.597 8.018 -8.018 8.018 c -4.422 0 -8.018 -3.597 -8.018 -8.018 s 3.597 -8.018 8.018 -8.018 C 29.552 19.326 33.149 22.923 33.149 27.345 z M 51.028 30.536 L 21.016 60.548 c -1.08 1.079 -2.961 1.079 -4.041 0 l -1.062 -1.062 l 22.213 -22.214 c 0.293 -0.293 0.293 -0.768 0 -1.061 c -0.293 -0.293 -0.768 -0.293 -1.061 0 L 14.853 58.425 l -1.066 -1.066 c -1.118 -1.116 -1.116 -2.926 0 -4.041 c 3.77 -3.77 26.676 -26.676 30.016 -30.016 c 0.178 -0.177 0.255 -0.432 0.205 -0.678 c -1.253 -6.241 3.667 -12.071 10.124 -11.773 l -5.918 5.918 c -0.141 0.141 -0.22 0.331 -0.22 0.53 c 0 0.199 0.079 0.39 0.22 0.53 l 8.29 8.29 c 0.293 0.293 0.768 0.293 1.061 0 l 5.922 -5.922 c 0.313 6.361 -5.446 11.414 -11.779 10.133 C 51.46 30.282 51.206 30.358 51.028 30.536 z" stroke-linecap="round" />
</g>
		<g transform="matrix(1 0 0 1 7.404999999999998 1.9339999999999975)"  >
<linearGradient id="SVGID_19156" gradientUnits="userSpaceOnUse" gradientTransform="matrix(1 0 0 1 38.46225 32.991249999999994)"  x1="0" y1="0" x2="66" y2="66">
<stop offset="0%" style="stop-color:rgb(45,56,138);stop-opacity: 1"/>
<stop offset="100%" style="stop-color:rgb(0,174,239);stop-opacity: 1"/>
</linearGradient>
</g>
</g>
</g>
</svg>