<?xml version="1.0" encoding="UTF-8" standalone="no" ?>
<!DOCTYPE svg PUBLIC "-//W3C//DTD SVG 1.1//EN" "http://www.w3.org/Graphics/SVG/1.1/DTD/svg11.dtd">
<svg xmlns="http://www.w3.org/2000/svg" xmlns:xlink="http://www.w3.org/1999/xlink" version="1.1" width="500" height="500" viewBox="0 0 500 500" xml:space="preserve">
	<desc>Created with Fabric.js 3.6.3</desc>
	<defs>
	</defs>
	<g transform="matrix(1 0 0 1 249.4863552248089 341.66438578920935)" style=""  >
	<g style=""   >
			<g transform="matrix(1 0 0 1 0.5000759670212815 0.5007797884885576)"  >
	<linearGradient id="SVGID_19155" gradientUnits="userSpaceOnUse" gradientTransform="matrix(1 0 0 1 0.9980518919159067 3.114934549460223)"  x1="0" y1="0" x2="66" y2="66">
	<stop offset="0%" style="stop-color:rgb(45,56,138);stop-opacity: 1"/>
	<stop offset="100%" style="stop-color:rgb(0,174,239);stop-opacity: 1"/>
	</linearGradient>
	<path style="stroke: none; stroke-width: 1; stroke-dasharray: none; stroke-linecap: butt; stroke-dashoffset: 0; stroke-linejoin: miter; stroke-miterlimit: 4; fill: url(#SVGID_19155); fill-rule: nonzero; opacity: 1;"  transform=" translate(-33.00007596702128, -33.00077978848856)" d="M 64.775 18.437 c -0.055 -0.271 -0.254 -0.49 -0.519 -0.57 c -0.267 -0.081 -0.553 -0.008 -0.747 0.188 l -6.476 6.476 L 49.804 17.3 l 6.472 -6.471 c 0.195 -0.195 0.268 -0.482 0.188 -0.747 c -0.08 -0.265 -0.299 -0.464 -0.57 -0.519 c -5.841 -1.174 -11.658 2.352 -13.197 8.264 c -0.464 -0.916 -1.004 -1.798 -1.615 -2.645 l 1.067 -1.286 c 0.904 -1.085 0.761 -2.706 -0.333 -3.617 l -3.783 -3.142 c -1.049 -0.871 -2.746 -0.712 -3.616 0.334 L 33.347 8.76 c -1.708 -0.808 -3.494 -1.362 -5.323 -1.651 L 27.87 5.442 c -0.132 -1.422 -1.398 -2.451 -2.789 -2.315 L 20.173 3.58 c -1.417 0.131 -2.461 1.376 -2.33 2.789 l 0.154 1.666 c -1.775 0.639 -3.424 1.512 -4.917 2.6 l -1.288 -1.071 c -1.09 -0.904 -2.711 -0.753 -3.616 0.334 L 5.02 13.683 c -0.904 1.088 -0.755 2.71 0.334 3.616 l 1.286 1.068 c -0.8 1.7 -1.354 3.485 -1.652 5.326 l -1.663 0.154 c -1.403 0.129 -2.446 1.383 -2.316 2.788 l 0.454 4.91 c 0.125 1.347 1.26 2.339 2.552 2.339 c 0.132 0 1.213 -0.1 1.907 -0.165 c 0.618 1.744 1.488 3.396 2.594 4.93 l -1.068 1.276 c -0.907 1.091 -0.753 2.713 0.335 3.616 l 3.796 3.154 c 1.093 0.906 2.715 0.751 3.616 -0.335 l 1.064 -1.28 c 0.844 0.403 1.719 0.75 2.62 1.027 l -6.151 6.151 c -1.704 1.703 -1.703 4.46 0 6.162 l 3.188 3.189 c 1.704 1.704 4.459 1.703 6.162 0 L 51.81 31.875 C 59.661 33.164 66.331 26.203 64.775 18.437 z M 4.114 32.38 c -0.577 0.051 -1.103 -0.382 -1.157 -0.973 c -0.423 -4.572 -0.905 -5.936 0.507 -6.066 l 1.324 -0.122 c -0.1 1.172 -0.098 2.361 0.014 3.546 c 0.104 1.182 0.322 2.354 0.641 3.493 L 4.114 32.38 z M 35.571 8.43 c 0.372 -0.448 1.05 -0.516 1.503 -0.139 l 3.783 3.142 c 0.453 0.376 0.516 1.053 0.139 1.504 l -0.849 1.023 c -1.534 -1.822 -3.354 -3.334 -5.427 -4.507 L 35.571 8.43 z M 20.31 5.074 l 4.909 -0.454 c 0.585 -0.053 1.102 0.376 1.156 0.961 l 0.123 1.324 c -1.164 -0.104 -2.352 -0.103 -3.546 0.01 c -1.211 0.114 -2.381 0.332 -3.493 0.64 l -0.122 -1.323 C 19.282 5.643 19.717 5.129 20.31 5.074 z M 6.313 16.145 c -0.453 -0.377 -0.515 -1.051 -0.14 -1.503 l 3.155 -3.785 c 0.377 -0.454 1.052 -0.514 1.504 -0.139 l 1.048 0.871 c -1.803 1.51 -3.341 3.354 -4.521 5.425 L 6.313 16.145 z M 14.04 45.402 c -0.377 0.452 -1.05 0.515 -1.503 0.139 l -3.796 -3.154 c -0.455 -0.377 -0.512 -1.055 -0.142 -1.501 l 0.853 -1.018 c 1.538 1.816 3.394 3.355 5.44 4.509 L 14.04 45.402 z M 16.393 43.482 c -2.451 -1.23 -4.644 -3.046 -6.34 -5.25 C 8.752 36.535 7.77 34.67 7.136 32.68 c -0.438 -1.31 -0.721 -2.672 -0.841 -4.053 c -0.132 -1.39 -0.106 -2.783 0.076 -4.141 c 0.272 -2.083 0.897 -4.098 1.854 -5.986 c 1.266 -2.482 3.087 -4.668 5.276 -6.326 c 1.642 -1.278 3.5 -2.262 5.528 -2.925 c 1.267 -0.423 2.634 -0.705 4.063 -0.84 c 1.399 -0.134 2.79 -0.105 4.145 0.087 c 2.069 0.261 4.081 0.885 5.979 1.853 c 0 0 0.001 0.001 0.001 0.001 c 2.496 1.266 4.622 3.033 6.324 5.253 c 0.002 0.002 0.005 0.003 0.007 0.006 c 1.216 1.588 2.15 3.327 2.781 5.169 c 0.005 0.58 0.038 1.161 0.134 1.743 l -1.407 1.407 c -0.624 -3.422 -2.291 -6.498 -4.716 -8.855 c -3.321 -3.235 -7.947 -5.055 -13.073 -4.624 C 13.924 11.36 7.496 19.596 8.334 28.44 c 0.691 7.257 5.998 13.36 13.481 14.729 l -1.718 1.718 C 18.809 44.555 17.565 44.089 16.393 43.482 z M 25.132 17.826 c -5.249 0 -9.519 4.27 -9.519 9.518 c 0 5.248 4.269 9.518 9.519 9.518 c 1.341 0 2.616 -0.282 3.774 -0.784 l -5.766 5.766 c -7.078 -0.759 -12.64 -6.401 -13.311 -13.546 c -0.755 -7.964 5.007 -15.525 13.576 -16.357 c 4.676 -0.393 8.86 1.261 11.89 4.204 c 2.465 2.4 4.065 5.605 4.443 9.1 l -5.872 5.873 c 0.502 -1.158 0.784 -2.433 0.784 -3.774 C 34.649 22.097 30.38 17.826 25.132 17.826 z M 33.149 27.345 c 0 4.421 -3.597 8.018 -8.018 8.018 c -4.422 0 -8.018 -3.597 -8.018 -8.018 s 3.597 -8.018 8.018 -8.018 C 29.552 19.326 33.149 22.923 33.149 27.345 z M 51.028 30.536 L 21.016 60.548 c -1.08 1.079 -2.961 1.079 -4.041 0 l -1.062 -1.062 l 22.213 -22.214 c 0.293 -0.293 0.293 -0.768 0 -1.061 c -0.293 -0.293 -0.768 -0.293 -1.061 0 L 14.853 58.425 l -1.066 -1.066 c -1.118 -1.116 -1.116 -2.926 0 -4.041 c 3.77 -3.77 26.676 -26.676 30.016 -30.016 c 0.178 -0.177 0.255 -0.432 0.205 -0.678 c -1.253 -6.241 3.667 -12.071 10.124 -11.773 l -5.918 5.918 c -0.141 0.141 -0.22 0.331 -0.22 0.53 c 0 0.199 0.079 0.39 0.22 0.53 l 8.29 8.29 c 0.293 0.293 0.768 0.293 1.061 0 l 5.922 -5.922 c 0.313 6.361 -5.446 11.414 -11.779 10.133 C 51.46 30.282 51.206 30.358 51.028 30.536 z" stroke-linecap="round" />
	</g>
			<g transform="matrix(1 0 0 1 7.404999999999998 1.9339999999999975)"  >
	<linearGradient id="SVGID_19156" gradientUnits="userSpaceOnUse" gradientTransform="matrix(1 0 0 1 38.46225 32.991249999999994)"  x1="0" y1="0" x2="66" y2="66">
	<stop offset="0%" style="stop-color:rgb(45,56,138);stop-opacity: 1"/>
	<stop offset="100%" style="stop-color:rgb(0,174,239);stop-opacity: 1"/>
	</linearGradient>
	</g>
	</g>
	</g>
</svg>